<?xml version="1.0" standalone="no"?>
<!DOCTYPE svg PUBLIC "-//W3C//DTD SVG 20010904//EN"
 "http://www.w3.org/TR/2001/REC-SVG-20010904/DTD/svg10.dtd">
<svg version="1.0" xmlns="http://www.w3.org/2000/svg"
 width="160.000000pt" height="160.000000pt" viewBox="0 0 160.000000 160.000000"
 preserveAspectRatio="xMidYMid meet">
<metadata>
Created by potrace 1.10, written by Peter Selinger 2001-2011
</metadata>
<g transform="translate(0.000000,160.000000) scale(0.100000,-0.100000)"
fill="#000000" stroke="none">
<path d="M423 1190 c-100 -20 -145 -66 -173 -177 -21 -86 -40 -233 -40 -321 0
-47 3 -55 21 -59 19 -5 21 -11 15 -59 -6 -52 -6 -52 24 -59 43 -9 29 -21 -32
-28 -94 -11 -222 -37 -232 -47 -17 -17 30 -12 183 20 79 16 155 27 170 24 14
-3 95 6 179 19 228 35 173 12 -136 -57 -154 -34 -171 -40 -159 -53 8 -7 115
18 347 82 611 170 758 205 917 220 58 6 72 10 76 26 7 25 -8 35 -73 48 -122
25 -211 64 -415 182 -389 224 -398 229 -461 239 -69 11 -152 11 -211 0z m60
-26 c9 -10 -4 -34 -18 -34 -17 0 -28 17 -20 30 7 11 28 13 38 4z m65 -11 c5
-17 -26 -29 -40 -15 -6 6 -7 15 -3 22 9 14 37 9 43 -7z m183 -36 c41 -19 65
-36 62 -43 -3 -7 -11 -10 -19 -7 -16 6 -74 -49 -74 -71 0 -9 -4 -16 -9 -16 -4
0 -5 -19 -1 -41 15 -78 90 -112 147 -66 35 29 60 24 68 -14 4 -16 11 -29 15
-29 5 0 7 -6 4 -13 -3 -10 -18 -11 -57 -6 -124 18 -193 5 -191 -36 1 -39 16
-66 41 -76 13 -5 113 -9 221 -10 183 0 261 -8 222 -22 -33 -12 -306 -87 -375
-103 -57 -14 -162 -25 -370 -39 -97 -7 -130 5 -131 50 -1 41 5 55 24 55 22 0
62 40 62 61 0 30 -40 59 -82 59 -37 0 -38 1 -35 35 2 39 8 43 27 20 11 -13 39
-15 156 -14 139 1 144 2 168 26 14 14 28 42 31 62 3 20 13 50 21 67 8 17 16
37 18 45 2 8 6 32 11 53 7 34 5 42 -15 58 -12 10 -37 18 -54 18 -38 0 -47 6
-39 27 8 21 73 9 154 -30z m-61 -30 c0 -2 -8 -21 -19 -43 -10 -21 -28 -77 -40
-123 -11 -47 -27 -88 -34 -93 -6 -4 -73 -7 -147 -6 l-135 3 1 105 c1 58 7 117
13 133 l11 27 175 0 c96 0 175 -1 175 -3z m128 -63 c19 -13 22 -24 22 -81 l0
-65 -37 7 c-55 10 -66 22 -59 66 14 86 31 103 74 73z m100 -64 c3 -36 1 -42
-13 -36 -9 3 -21 6 -26 6 -5 0 -9 23 -9 51 0 51 0 51 23 37 16 -11 23 -27 25
-58z m108 -32 c50 -22 52 -25 57 -68 3 -25 4 -46 3 -48 -2 -1 -29 4 -62 11
l-59 13 -3 57 c-2 31 1 57 5 57 4 0 31 -10 59 -22z m124 -65 c0 -37 -37 -30
-42 7 -3 17 -3 32 0 34 10 11 42 -21 42 -41z m56 -11 c6 -4 13 -22 16 -39 4
-26 1 -33 -12 -33 -30 0 -49 23 -43 53 5 27 18 33 39 19z m54 -21 c0 -5 14
-12 30 -16 19 -4 30 -13 30 -23 0 -11 3 -13 8 -5 5 8 31 5 97 -13 50 -13 99
-24 110 -24 14 0 21 -7 21 -21 l0 -21 -266 6 c-146 3 -331 7 -412 9 l-146 2
-5 30 c-3 17 -3 32 -2 33 2 2 104 -6 227 -17 403 -39 588 -51 588 -38 0 7 -22
10 -72 9 -16 0 -28 4 -28 11 0 8 -3 8 -12 -1 -9 -9 -14 -7 -24 6 -8 10 -13 12
-14 5 0 -20 -30 -15 -30 5 0 10 -3 13 -8 6 -11 -17 -42 -13 -42 5 -1 14 -2 14
-11 -1 -10 -19 -39 -14 -39 7 0 7 -7 15 -15 19 -8 3 -15 12 -15 21 0 8 7 15
15 15 8 0 15 -4 15 -9z m-905 -141 c0 -14 -6 -25 -12 -24 -7 1 -31 2 -53 3
-32 1 -40 5 -40 20 0 15 8 21 38 24 60 6 67 4 67 -23z"/>
<path d="M515 725 c-31 -30 -31 -36 0 -69 37 -40 114 -32 143 14 16 25 6 48
-29 65 -43 23 -86 19 -114 -10z m119 -26 c16 -15 -5 -26 -57 -32 -36 -3 -50
-1 -54 9 -12 31 4 42 54 37 26 -3 52 -9 57 -14z"/>
<path d="M360 860 c0 -19 5 -21 57 -18 46 2 59 7 61 21 3 15 -5 17 -57 17 -55
0 -61 -2 -61 -20z"/>
</g>
</svg>
